<mxfile host="Electron" agent="Mozilla/5.0 (Windows NT 10.0; Win64; x64) AppleWebKit/537.36 (KHTML, like Gecko) draw.io/28.2.5 Chrome/138.0.7204.251 Electron/37.6.1 Safari/537.36" version="28.2.5">
  <diagram name="Page-1" id="eCSQQSkEP3Q9tmuWlg4D">
    <mxGraphModel dx="1744" dy="1058" grid="1" gridSize="10" guides="1" tooltips="1" connect="1" arrows="1" fold="1" page="1" pageScale="1" pageWidth="827" pageHeight="1169" math="0" shadow="0">
      <root>
        <mxCell id="0" />
        <mxCell id="1" parent="0" />
        <mxCell id="Gy7n78G6FDNUXE3aZia4-46" value="" style="ellipse;html=1;shape=startState;" parent="1" vertex="1">
          <mxGeometry x="275" y="940" width="30" height="30" as="geometry" />
        </mxCell>
        <mxCell id="Gy7n78G6FDNUXE3aZia4-47" value="" style="edgeStyle=orthogonalEdgeStyle;html=1;verticalAlign=bottom;endArrow=open;endSize=8;rounded=0;entryX=0.5;entryY=0;entryDx=0;entryDy=0;" parent="1" source="Gy7n78G6FDNUXE3aZia4-46" target="Gy7n78G6FDNUXE3aZia4-49" edge="1">
          <mxGeometry relative="1" as="geometry">
            <mxPoint x="610" y="990" as="targetPoint" />
          </mxGeometry>
        </mxCell>
        <mxCell id="Gy7n78G6FDNUXE3aZia4-48" style="edgeStyle=orthogonalEdgeStyle;rounded=0;orthogonalLoop=1;jettySize=auto;html=1;entryX=0.5;entryY=0;entryDx=0;entryDy=0;" parent="1" source="Gy7n78G6FDNUXE3aZia4-49" target="Gy7n78G6FDNUXE3aZia4-51" edge="1">
          <mxGeometry relative="1" as="geometry" />
        </mxCell>
        <mxCell id="Gy7n78G6FDNUXE3aZia4-49" value="&amp;nbsp;enter search criteria" style="rounded=1;whiteSpace=wrap;html=1;" parent="1" vertex="1">
          <mxGeometry x="230" y="1030" width="120" height="50" as="geometry" />
        </mxCell>
        <mxCell id="Gy7n78G6FDNUXE3aZia4-50" style="edgeStyle=orthogonalEdgeStyle;rounded=0;orthogonalLoop=1;jettySize=auto;html=1;exitX=0.5;exitY=1;exitDx=0;exitDy=0;" parent="1" source="Gy7n78G6FDNUXE3aZia4-51" target="Gy7n78G6FDNUXE3aZia4-52" edge="1">
          <mxGeometry relative="1" as="geometry" />
        </mxCell>
        <mxCell id="Gy7n78G6FDNUXE3aZia4-51" value="list the cars matching criteria" style="rounded=1;whiteSpace=wrap;html=1;" parent="1" vertex="1">
          <mxGeometry x="855" y="1100" width="120" height="60" as="geometry" />
        </mxCell>
        <mxCell id="Gy7n78G6FDNUXE3aZia4-52" value="&lt;font style=&quot;color: rgb(255, 255, 255);&quot;&gt;car exists ?&lt;/font&gt;" style="rhombus;whiteSpace=wrap;html=1;strokeColor=#FFFFFF;" parent="1" vertex="1">
          <mxGeometry x="625" y="1210" width="80" height="40" as="geometry" />
        </mxCell>
        <mxCell id="Gy7n78G6FDNUXE3aZia4-53" value="No" style="edgeStyle=orthogonalEdgeStyle;html=1;align=left;verticalAlign=bottom;endArrow=open;endSize=8;strokeColor=#FFFFFF;rounded=0;entryX=1;entryY=0.5;entryDx=0;entryDy=0;" parent="1" target="Gy7n78G6FDNUXE3aZia4-59" edge="1">
          <mxGeometry x="-1" y="-20" relative="1" as="geometry">
            <mxPoint x="815" y="1500" as="targetPoint" />
            <Array as="points">
              <mxPoint x="816" y="1230" />
              <mxPoint x="816" y="1500" />
            </Array>
            <mxPoint x="-20" y="-20" as="offset" />
            <mxPoint x="730" y="1230" as="sourcePoint" />
          </mxGeometry>
        </mxCell>
        <mxCell id="Gy7n78G6FDNUXE3aZia4-54" value="Yess" style="edgeStyle=orthogonalEdgeStyle;html=1;align=left;verticalAlign=top;endArrow=open;endSize=8;strokeColor=#FFFFFF;rounded=0;" parent="1" source="Gy7n78G6FDNUXE3aZia4-52" edge="1">
          <mxGeometry x="-0.8774" y="-30" relative="1" as="geometry">
            <mxPoint x="315" y="1330" as="targetPoint" />
            <mxPoint as="offset" />
          </mxGeometry>
        </mxCell>
        <mxCell id="Gy7n78G6FDNUXE3aZia4-55" value="&amp;nbsp;Select car" style="rounded=1;whiteSpace=wrap;html=1;arcSize=40;" parent="1" vertex="1">
          <mxGeometry x="255" y="1330" width="120" height="40" as="geometry" />
        </mxCell>
        <mxCell id="Gy7n78G6FDNUXE3aZia4-56" value="" style="edgeStyle=orthogonalEdgeStyle;html=1;verticalAlign=bottom;endArrow=open;endSize=8;strokeColor=#FFFFFF;rounded=0;entryX=0.5;entryY=0;entryDx=0;entryDy=0;" parent="1" source="Gy7n78G6FDNUXE3aZia4-55" target="Gy7n78G6FDNUXE3aZia4-57" edge="1">
          <mxGeometry relative="1" as="geometry">
            <mxPoint x="315" y="1420" as="targetPoint" />
          </mxGeometry>
        </mxCell>
        <mxCell id="Gy7n78G6FDNUXE3aZia4-57" value="display car info" style="rounded=1;whiteSpace=wrap;html=1;arcSize=40;strokeColor=#FFFFFF;" parent="1" vertex="1">
          <mxGeometry x="625" y="1400" width="120" height="40" as="geometry" />
        </mxCell>
        <mxCell id="Gy7n78G6FDNUXE3aZia4-58" value="" style="edgeStyle=orthogonalEdgeStyle;html=1;verticalAlign=bottom;endArrow=open;endSize=8;strokeColor=#FFFFFF;rounded=0;" parent="1" source="Gy7n78G6FDNUXE3aZia4-57" edge="1">
          <mxGeometry relative="1" as="geometry">
            <mxPoint x="315" y="1520" as="targetPoint" />
          </mxGeometry>
        </mxCell>
        <mxCell id="Gy7n78G6FDNUXE3aZia4-59" value="enter info of the new vehicle" style="rounded=1;whiteSpace=wrap;html=1;arcSize=40;" parent="1" vertex="1">
          <mxGeometry x="420" y="1480" width="120" height="40" as="geometry" />
        </mxCell>
        <mxCell id="Gy7n78G6FDNUXE3aZia4-60" value="" style="edgeStyle=orthogonalEdgeStyle;html=1;verticalAlign=bottom;endArrow=open;endSize=8;strokeColor=#FFFFFF;rounded=0;entryX=0.75;entryY=0;entryDx=0;entryDy=0;" parent="1" source="Gy7n78G6FDNUXE3aZia4-59" target="Gy7n78G6FDNUXE3aZia4-66" edge="1">
          <mxGeometry relative="1" as="geometry">
            <mxPoint x="555" y="1700" as="targetPoint" />
            <Array as="points">
              <mxPoint x="540" y="1770" />
            </Array>
          </mxGeometry>
        </mxCell>
        <mxCell id="Gy7n78G6FDNUXE3aZia4-61" value="under warranty&amp;nbsp;" style="rhombus;whiteSpace=wrap;html=1;" parent="1" vertex="1">
          <mxGeometry x="265" y="1520" width="100" height="40" as="geometry" />
        </mxCell>
        <mxCell id="Gy7n78G6FDNUXE3aZia4-62" value="no" style="edgeStyle=orthogonalEdgeStyle;html=1;align=left;verticalAlign=bottom;endArrow=open;endSize=8;strokeColor=#FFFFFF;rounded=0;entryX=0.653;entryY=0.078;entryDx=0;entryDy=0;entryPerimeter=0;" parent="1" source="Gy7n78G6FDNUXE3aZia4-61" target="Gy7n78G6FDNUXE3aZia4-66" edge="1">
          <mxGeometry x="-1" relative="1" as="geometry">
            <mxPoint x="455" y="1540" as="targetPoint" />
          </mxGeometry>
        </mxCell>
        <mxCell id="Gy7n78G6FDNUXE3aZia4-63" value="yes" style="edgeStyle=orthogonalEdgeStyle;html=1;align=left;verticalAlign=top;endArrow=open;endSize=8;strokeColor=#FFFFFF;rounded=0;" parent="1" source="Gy7n78G6FDNUXE3aZia4-61" edge="1">
          <mxGeometry x="-1" relative="1" as="geometry">
            <mxPoint x="315" y="1620" as="targetPoint" />
          </mxGeometry>
        </mxCell>
        <mxCell id="Gy7n78G6FDNUXE3aZia4-64" style="edgeStyle=orthogonalEdgeStyle;rounded=0;orthogonalLoop=1;jettySize=auto;html=1;exitX=1;exitY=0.5;exitDx=0;exitDy=0;entryX=0.5;entryY=0;entryDx=0;entryDy=0;strokeColor=#FFFFFF;" parent="1" source="Gy7n78G6FDNUXE3aZia4-65" target="Gy7n78G6FDNUXE3aZia4-66" edge="1">
          <mxGeometry relative="1" as="geometry" />
        </mxCell>
        <mxCell id="Gy7n78G6FDNUXE3aZia4-65" value="enter repair request date" style="rounded=1;whiteSpace=wrap;html=1;arcSize=40;" parent="1" vertex="1">
          <mxGeometry x="255" y="1620" width="120" height="40" as="geometry" />
        </mxCell>
        <mxCell id="Gy7n78G6FDNUXE3aZia4-66" value="enter reception and return dates" style="rounded=1;whiteSpace=wrap;html=1;arcSize=40;" parent="1" vertex="1">
          <mxGeometry x="375" y="1770" width="120" height="40" as="geometry" />
        </mxCell>
        <mxCell id="Gy7n78G6FDNUXE3aZia4-67" value="" style="edgeStyle=orthogonalEdgeStyle;html=1;verticalAlign=bottom;endArrow=open;endSize=8;strokeColor=#FFFFFF;rounded=0;entryX=0.5;entryY=0;entryDx=0;entryDy=0;" parent="1" source="Gy7n78G6FDNUXE3aZia4-66" target="Gy7n78G6FDNUXE3aZia4-68" edge="1">
          <mxGeometry relative="1" as="geometry">
            <mxPoint x="555" y="1800" as="targetPoint" />
            <Array as="points">
              <mxPoint x="660" y="1790" />
              <mxPoint x="660" y="1820" />
              <mxPoint x="870" y="1820" />
            </Array>
          </mxGeometry>
        </mxCell>
        <mxCell id="Gy7n78G6FDNUXE3aZia4-68" value="paid by insurance&amp;nbsp;" style="rhombus;whiteSpace=wrap;html=1;" parent="1" vertex="1">
          <mxGeometry x="825" y="1790" width="90" height="50" as="geometry" />
        </mxCell>
        <mxCell id="Gy7n78G6FDNUXE3aZia4-69" value="no" style="edgeStyle=orthogonalEdgeStyle;html=1;align=left;verticalAlign=bottom;endArrow=open;endSize=8;strokeColor=#FFFFFF;rounded=0;entryX=1;entryY=0.5;entryDx=0;entryDy=0;" parent="1" source="Gy7n78G6FDNUXE3aZia4-68" target="Gy7n78G6FDNUXE3aZia4-75" edge="1">
          <mxGeometry x="-1" relative="1" as="geometry">
            <mxPoint x="690" y="2140" as="targetPoint" />
            <Array as="points">
              <mxPoint x="996" y="1815" />
              <mxPoint x="996" y="1980" />
              <mxPoint x="1000" y="1980" />
              <mxPoint x="1000" y="2030" />
              <mxPoint x="996" y="2030" />
              <mxPoint x="996" y="2170" />
            </Array>
          </mxGeometry>
        </mxCell>
        <mxCell id="Gy7n78G6FDNUXE3aZia4-70" value="yes" style="edgeStyle=orthogonalEdgeStyle;html=1;align=left;verticalAlign=top;endArrow=open;endSize=8;strokeColor=#FFFFFF;rounded=0;entryX=0.5;entryY=0;entryDx=0;entryDy=0;" parent="1" source="Gy7n78G6FDNUXE3aZia4-68" target="Gy7n78G6FDNUXE3aZia4-71" edge="1">
          <mxGeometry x="-1" relative="1" as="geometry">
            <mxPoint x="555" y="1900" as="targetPoint" />
          </mxGeometry>
        </mxCell>
        <mxCell id="Gy7n78G6FDNUXE3aZia4-71" value="display list of iinsurance" style="rounded=1;whiteSpace=wrap;html=1;arcSize=40;" parent="1" vertex="1">
          <mxGeometry x="795" y="1910" width="120" height="40" as="geometry" />
        </mxCell>
        <mxCell id="Gy7n78G6FDNUXE3aZia4-72" value="" style="edgeStyle=orthogonalEdgeStyle;html=1;verticalAlign=bottom;endArrow=open;endSize=8;strokeColor=#FFFFFF;rounded=0;entryX=0.5;entryY=0;entryDx=0;entryDy=0;" parent="1" source="Gy7n78G6FDNUXE3aZia4-71" target="Gy7n78G6FDNUXE3aZia4-73" edge="1">
          <mxGeometry relative="1" as="geometry">
            <mxPoint x="545" y="1999" as="targetPoint" />
            <Array as="points">
              <mxPoint x="855" y="1970" />
              <mxPoint x="325" y="1970" />
            </Array>
          </mxGeometry>
        </mxCell>
        <mxCell id="Gy7n78G6FDNUXE3aZia4-73" value="select appropriate insurance" style="rounded=1;whiteSpace=wrap;html=1;arcSize=40;" parent="1" vertex="1">
          <mxGeometry x="265" y="1999" width="120" height="40" as="geometry" />
        </mxCell>
        <mxCell id="Gy7n78G6FDNUXE3aZia4-74" value="" style="edgeStyle=orthogonalEdgeStyle;html=1;verticalAlign=bottom;endArrow=open;endSize=8;strokeColor=#FFFFFF;rounded=0;exitX=1;exitY=0.25;exitDx=0;exitDy=0;entryX=0.425;entryY=-0.006;entryDx=0;entryDy=0;entryPerimeter=0;" parent="1" source="Gy7n78G6FDNUXE3aZia4-73" target="Gy7n78G6FDNUXE3aZia4-75" edge="1">
          <mxGeometry relative="1" as="geometry">
            <mxPoint x="680" y="1940" as="targetPoint" />
            <Array as="points">
              <mxPoint x="385" y="1920" />
              <mxPoint x="701" y="1920" />
            </Array>
            <mxPoint x="299.99882352941194" y="1869" as="sourcePoint" />
          </mxGeometry>
        </mxCell>
        <mxCell id="HrwkujQCm3yp0Rb19qsd-4" style="edgeStyle=orthogonalEdgeStyle;rounded=0;orthogonalLoop=1;jettySize=auto;html=1;entryX=1;entryY=0;entryDx=0;entryDy=0;" edge="1" parent="1" source="Gy7n78G6FDNUXE3aZia4-75" target="Gy7n78G6FDNUXE3aZia4-77">
          <mxGeometry relative="1" as="geometry" />
        </mxCell>
        <mxCell id="Gy7n78G6FDNUXE3aZia4-75" value="record repair form" style="rounded=1;whiteSpace=wrap;html=1;arcSize=40;" parent="1" vertex="1">
          <mxGeometry x="650" y="2010" width="120" height="40" as="geometry" />
        </mxCell>
        <mxCell id="Gy7n78G6FDNUXE3aZia4-77" value="" style="ellipse;html=1;shape=endState;fillColor=#000000;strokeColor=#FFFFFF;" parent="1" vertex="1">
          <mxGeometry x="570" y="2180" width="30" height="30" as="geometry" />
        </mxCell>
        <mxCell id="Gy7n78G6FDNUXE3aZia4-78" value="&lt;font style=&quot;font-size: 24px;&quot;&gt;manager&lt;/font&gt;" style="text;html=1;align=center;verticalAlign=middle;resizable=0;points=[];autosize=1;strokeColor=none;fillColor=none;" parent="1" vertex="1">
          <mxGeometry x="340" y="875" width="120" height="40" as="geometry" />
        </mxCell>
        <mxCell id="Gy7n78G6FDNUXE3aZia4-80" value="&lt;font style=&quot;font-size: 24px;&quot;&gt;software&lt;/font&gt;" style="text;html=1;align=center;verticalAlign=middle;resizable=0;points=[];autosize=1;strokeColor=none;fillColor=none;" parent="1" vertex="1">
          <mxGeometry x="750" y="875" width="110" height="40" as="geometry" />
        </mxCell>
        <mxCell id="Gy7n78G6FDNUXE3aZia4-81" value="" style="shape=link;html=1;rounded=0;" parent="1" edge="1">
          <mxGeometry width="100" relative="1" as="geometry">
            <mxPoint x="580" y="760" as="sourcePoint" />
            <mxPoint x="580" y="2170" as="targetPoint" />
          </mxGeometry>
        </mxCell>
      </root>
    </mxGraphModel>
  </diagram>
</mxfile>
